<?xml version="1.0" encoding="iso-8859-1"?>
<!-- Generator: Adobe Illustrator 19.0.0, SVG Export Plug-In . SVG Version: 6.00 Build 0)  -->
<svg version="1.1" id="Layer_1" xmlns="http://www.w3.org/2000/svg" xmlns:xlink="http://www.w3.org/1999/xlink" x="0px" y="0px"
	 viewBox="0 0 496.2 496.2" style="enable-background:new 0 0 496.2 496.2;" xml:space="preserve">
<path style="fill:#18AFFF;" d="M0,248.1C0,111.1,111.1,0,248.1,0s248.1,111.1,248.1,248.1S385.1,496.2,248.1,496.2S0,385.1,0,248.1z
	"/>
<g style="opacity:0.3;enable-background:new    ;">
	<g>
		<polygon style="fill:#1DA1DB;" points="134.5,128.4 134.6,132.4 104.2,132.3 104.1,128.2 		"/>
		<polygon style="fill:#1DA1DB;" points="172.6,128.5 172.6,132.6 142.2,132.5 142.2,128.4 		"/>
		<polygon style="fill:#1DA1DB;" points="210.6,128.6 210.7,132.7 180.3,132.6 180.2,128.5 		"/>
		<polygon style="fill:#1DA1DB;" points="248.7,128.8 248.7,132.9 218.3,132.7 218.3,128.7 		"/>
		<polygon style="fill:#1DA1DB;" points="286.7,128.9 286.8,133 256.3,132.9 256.3,128.8 		"/>
		<polygon style="fill:#1DA1DB;" points="317.2,129 317.2,133.1 294.4,133 294.3,128.9 		"/>
		<polygon style="fill:#1DA1DB;" points="355.2,129.1 355.3,133.2 324.8,133.1 324.8,129 		"/>
		<polygon style="fill:#1DA1DB;" points="393.2,129.3 393.3,133.4 362.9,133.3 362.8,129.2 		"/>
	</g>
	<polygon style="opacity:0.1;fill:#16193B;enable-background:new    ;" points="400.9,122 401,126.1 400.9,135.7 400.8,131.6 	"/>
	<g>
		<polygon style="fill:#1DA1DB;" points="134.3,157.7 134.4,161.8 104,161.7 103.9,157.6 		"/>
		<polygon style="fill:#1DA1DB;" points="172.4,157.9 172.5,161.9 142.1,161.8 142,157.7 		"/>
		<polygon style="fill:#1DA1DB;" points="210.5,158 210.6,162.1 180.1,162 180,157.9 		"/>
		<polygon style="fill:#1DA1DB;" points="248.5,158.1 248.6,162.2 218.2,162.1 218.1,158 		"/>
		<polygon style="fill:#1DA1DB;" points="286.6,158.3 286.7,162.3 256.2,162.2 256.1,158.1 		"/>
		<polygon style="fill:#1DA1DB;" points="317,158.4 317.1,162.5 294.3,162.4 294.2,158.3 		"/>
		<polygon style="fill:#1DA1DB;" points="355.1,158.5 355.2,162.6 324.7,162.5 324.6,158.4 		"/>
		<polygon style="fill:#1DA1DB;" points="393.1,158.6 393.2,162.7 362.8,162.6 362.7,158.5 		"/>
		<polygon style="fill:#1DA1DB;" points="134.2,194.3 134.2,198.4 103.8,198.3 103.8,194.2 		"/>
		<polygon style="fill:#1DA1DB;" points="172.2,194.5 172.3,198.6 141.9,198.4 141.8,194.4 		"/>
		<polygon style="fill:#1DA1DB;" points="210.3,194.6 210.4,198.7 179.9,198.6 179.8,194.5 		"/>
		<polygon style="fill:#1DA1DB;" points="248.3,194.7 248.4,198.8 218,198.7 217.9,194.6 		"/>
		<polygon style="fill:#1DA1DB;" points="286.4,194.9 286.5,199 256,198.8 255.9,194.8 		"/>
		<polygon style="fill:#1DA1DB;" points="316.8,195 316.9,199.1 294.1,199 294,194.9 		"/>
		<polygon style="fill:#1DA1DB;" points="354.9,195.1 355,199.2 324.5,199.1 324.4,195 		"/>
		<polygon style="fill:#1DA1DB;" points="392.9,195.2 393,199.3 362.6,199.2 362.5,195.1 		"/>
		<polygon style="fill:#1DA1DB;" points="133.9,238.3 134,242.4 103.6,242.3 103.5,238.2 		"/>
		<polygon style="fill:#1DA1DB;" points="172,238.5 172.1,242.6 141.7,242.4 141.6,238.4 		"/>
		<polygon style="fill:#1DA1DB;" points="210.1,238.6 210.2,242.7 179.7,242.6 179.6,238.5 		"/>
		<polygon style="fill:#1DA1DB;" points="248.1,238.7 248.2,242.8 217.8,242.7 217.7,238.6 		"/>
		<polygon style="fill:#1DA1DB;" points="286.2,238.9 286.2,243 255.8,242.9 255.7,238.8 		"/>
		<polygon style="fill:#1DA1DB;" points="316.6,239 316.7,243.1 293.9,243 293.8,238.9 		"/>
		<polygon style="fill:#1DA1DB;" points="354.7,239.1 354.7,243.2 324.3,243.1 324.2,239 		"/>
		<polygon style="fill:#1DA1DB;" points="392.7,239.2 392.7,243.3 362.3,243.2 362.3,239.1 		"/>
		<polygon style="fill:#1DA1DB;" points="133.8,267.6 133.9,271.7 103.4,271.6 103.4,267.5 		"/>
		<polygon style="fill:#1DA1DB;" points="171.9,267.8 171.9,271.8 141.5,271.7 141.5,267.6 		"/>
		<polygon style="fill:#1DA1DB;" points="209.9,267.9 210,272 179.5,271.9 179.5,267.8 		"/>
		<polygon style="fill:#1DA1DB;" points="248,268 248,272.1 217.6,272 217.5,267.9 		"/>
		<polygon style="fill:#1DA1DB;" points="286,268.2 286.1,272.2 255.6,272.1 255.6,268.1 		"/>
		<polygon style="fill:#1DA1DB;" points="316.4,268.3 316.5,272.4 293.7,272.3 293.6,268.2 		"/>
		<polygon style="fill:#1DA1DB;" points="354.5,268.4 354.6,272.5 324.1,272.4 324,268.3 		"/>
		<polygon style="fill:#1DA1DB;" points="392.5,268.5 392.6,272.6 362.2,272.5 362.1,268.4 		"/>
		<polygon style="fill:#1DA1DB;" points="133.6,304.3 133.7,308.4 103.3,308.3 103.2,304.2 		"/>
		<polygon style="fill:#1DA1DB;" points="171.7,304.4 171.7,308.5 141.3,308.4 141.3,304.3 		"/>
		<polygon style="fill:#1DA1DB;" points="209.7,304.6 209.8,308.7 179.3,308.6 179.3,304.5 		"/>
		<polygon style="fill:#1DA1DB;" points="247.8,304.7 247.8,308.8 217.4,308.7 217.4,304.6 		"/>
		<polygon style="fill:#1DA1DB;" points="285.8,304.8 285.9,308.9 255.4,308.8 255.4,304.7 		"/>
		<polygon style="fill:#1DA1DB;" points="316.2,304.9 316.3,309 293.5,309 293.4,304.9 		"/>
		<polygon style="fill:#1DA1DB;" points="354.3,305.1 354.4,309.2 323.9,309.1 323.8,305 		"/>
		<polygon style="fill:#1DA1DB;" points="392.3,305.2 392.4,309.3 362,309.2 361.9,305.1 		"/>
		<polygon style="fill:#1DA1DB;" points="133.4,340.9 133.5,345 103.1,344.9 103,340.8 		"/>
		<polygon style="fill:#1DA1DB;" points="171.5,341 171.6,345.1 141.1,345 141.1,340.9 		"/>
		<polygon style="fill:#1DA1DB;" points="209.6,341.2 209.6,345.3 179.2,345.2 179.1,341.1 		"/>
		<polygon style="fill:#1DA1DB;" points="247.6,341.3 247.6,345.4 217.2,345.3 217.2,341.2 		"/>
		<polygon style="fill:#1DA1DB;" points="285.6,341.5 285.7,345.5 255.2,345.4 255.2,341.3 		"/>
		<polygon style="fill:#1DA1DB;" points="316.1,341.6 316.1,345.6 293.3,345.6 293.3,341.5 		"/>
		<polygon style="fill:#1DA1DB;" points="354.1,341.7 354.2,345.8 323.7,345.7 323.7,341.6 		"/>
		<polygon style="fill:#1DA1DB;" points="392.1,341.8 392.2,345.9 361.8,345.8 361.7,341.7 		"/>
	</g>
	<g>
		<polygon style="fill:#808080;" points="103.5,370.2 103.6,374.3 95.3,374.2 95.2,370.1 		"/>
		<polygon style="fill:#808080;" points="133.9,370.3 134,374.4 103.6,374.3 103.5,370.2 		"/>
		<polygon style="fill:#808080;" points="141.5,370.3 141.6,374.4 134,374.4 133.9,370.3 		"/>
	</g>
	<polygon style="opacity:0.1;fill:#16193B;enable-background:new    ;" points="400.8,131.6 400.9,135.7 399.7,370.3 399.6,366.2 	
		"/>
	<g>
		<polygon style="fill:#808080;" points="172,370.4 172.1,374.5 141.6,374.4 141.5,370.3 		"/>
		<polygon style="fill:#808080;" points="179.6,370.4 179.7,374.5 172.1,374.5 172,370.4 		"/>
		<polygon style="fill:#808080;" points="210,370.5 210.1,374.6 179.7,374.5 179.6,370.4 		"/>
		<polygon style="fill:#808080;" points="217.6,370.6 217.7,374.7 210.1,374.6 210,370.5 		"/>
		<polygon style="fill:#808080;" points="248.1,370.7 248.2,374.8 217.7,374.7 217.6,370.6 		"/>
		<polygon style="fill:#808080;" points="255.7,370.7 255.8,374.8 248.2,374.8 248.1,370.7 		"/>
		<polygon style="fill:#808080;" points="286.1,370.8 286.2,374.9 255.8,374.8 255.7,370.7 		"/>
		<polygon style="fill:#808080;" points="293.7,370.8 293.8,374.9 286.2,374.9 286.1,370.8 		"/>
		<polygon style="fill:#808080;" points="316.6,370.9 316.7,375 293.8,374.9 293.7,370.8 		"/>
		<polygon style="fill:#808080;" points="324.2,370.9 324.3,375 316.7,375 316.6,370.9 		"/>
		<polygon style="fill:#808080;" points="354.6,371.1 354.7,375.1 324.3,375 324.2,370.9 		"/>
		<polygon style="fill:#808080;" points="362.2,371.1 362.3,375.2 354.7,375.1 354.6,371.1 		"/>
		<polygon style="fill:#808080;" points="392.7,371.2 392.8,375.3 362.3,375.2 362.2,371.1 		"/>
	</g>
	<polygon style="fill:#949494;" points="399.6,366.2 399.7,370.3 399.7,375.3 399.6,371.2 	"/>
	<path style="fill:#FFFFFF;" d="M394,121.9h6.9v9.6l-1.2,234.6v5h-6.9l-30.5-0.1h-7.6l-30.4-0.1h-7.6l-22.9-0.1h-7.6l-30.4-0.1h-7.6
		l-30.5-0.1h-7.6l-30.4-0.1h-7.6l-30.5-0.1H134l-30.4-0.1h-8.3v-5l0.1-22V336l0.1-29.3v-7.3l0.2-29.4v-7.3l0.1-22v-7.3l0.2-36.7
		v-7.3l0.2-29.3v-7.3l0.1-22l0.1-9.6h8.3l30.4,0.1h7.6l30.5,0.1h7.6l30.4,0.1h7.6l30.5,0.1h7.6l30.4,0.1h7.6l22.9,0.1h7.6l30.4,0.1
		h7.6L394,121.9z M354.7,231.8l0.2-36.7l-30.5-0.1l-0.2,36.7L354.7,231.8 M210.1,231.3l0.2-36.7l-30.5-0.1l-0.2,36.7L210.1,231.3
		 M286.2,231.5l0.2-36.7l-30.5-0.1l-0.2,36.7L286.2,231.5 M248.1,231.4l0.2-36.7l-30.4-0.1l-0.2,36.7L248.1,231.4 M172.1,231.1
		l0.2-36.7l-30.4-0.1l-0.2,36.7L172.1,231.1 M134,231l0.2-36.7l-30.4-0.1l-0.2,36.7L134,231 M392.7,231.9l0.2-36.7l-30.4-0.1
		l-0.2,36.7L392.7,231.9 M285.9,297.5l0.1-29.4l-30.5-0.1l-0.1,29.4L285.9,297.5 M209.8,297.2l0.2-29.4l-30.5-0.1l-0.1,29.4
		L209.8,297.2 M354.4,297.8l0.1-29.4l-30.5-0.1l-0.2,29.4L354.4,297.8 M247.8,297.4L248,268l-30.4-0.1l-0.2,29.4L247.8,297.4
		 M286.4,187.5l0.2-29.3l-30.5-0.1l-0.2,29.3L286.4,187.5 M171.7,297.1l0.1-29.4l-30.4-0.1l-0.2,29.4L171.7,297.1 M354.9,187.8
		l0.2-29.3l-30.5-0.1l-0.1,29.3L354.9,187.8 M210.4,187.3l0.1-29.3l-30.5-0.1l-0.2,29.3L210.4,187.3 M133.6,297l0.2-29.4l-30.4-0.1
		l-0.2,29.4L133.6,297 M354.2,334.4l0.1-29.3l-30.5-0.1l-0.2,29.3L354.2,334.4 M392.4,297.9l0.2-29.4l-30.4-0.1l-0.2,29.4
		L392.4,297.9 M209.6,333.9l0.1-29.3l-30.5-0.1l-0.1,29.3L209.6,333.9 M285.7,334.1l0.2-29.3l-30.5-0.1l-0.2,29.3L285.7,334.1
		 M248.4,187.4l0.2-29.3l-30.4-0.1l-0.1,29.3L248.4,187.4 M172.3,187.1l0.1-29.3l-30.4-0.1l-0.2,29.3L172.3,187.1 M134.2,187
		l0.2-29.3l-30.4-0.1l-0.1,29.3L134.2,187 M247.6,334l0.2-29.3l-30.4-0.1l-0.2,29.3L247.6,334 M171.5,333.7l0.2-29.3l-30.4-0.1
		l-0.2,29.3L171.5,333.7 M392.9,187.9l0.2-29.3l-30.4-0.1l-0.2,29.3L392.9,187.9 M133.4,333.6l0.2-29.3l-30.4-0.1l-0.2,29.3
		L133.4,333.6 M392.2,334.5l0.2-29.3l-30.4-0.1l-0.2,29.3L392.2,334.5 M316.6,231.6l0.2-36.7l-22.8-0.1l-0.2,36.7L316.6,231.6
		 M209.5,363.2l0.1-22l-30.5-0.1l-0.1,22L209.5,363.2 M354,363.7l0.1-22l-30.5-0.1l-0.1,22L354,363.7 M285.5,363.5l0.1-22l-30.5-0.1
		l-0.1,22L285.5,363.5 M247.5,363.3l0.1-22l-30.4-0.1l-0.1,22L247.5,363.3 M171.4,363.1l0.1-22l-30.4-0.1l-0.1,22L171.4,363.1
		 M133.3,362.9l0.1-22l-30.4-0.1l-0.1,22L133.3,362.9 M392,363.9l0.1-22l-30.4-0.1l-0.1,22L392,363.9 M355.1,151.1l0.1-22l-30.5-0.1
		l-0.1,22L355.1,151.1 M286.6,150.9l0.1-22l-30.5-0.1l-0.1,22L286.6,150.9 M210.6,150.6l0.1-22l-30.5-0.1l-0.1,22L210.6,150.6
		 M354.6,261.1l0.1-22l-30.5-0.1l-0.1,22L354.6,261.1 M286.1,260.8l0.1-22l-30.5-0.1l-0.1,22L286.1,260.8 M210,260.6l0.1-22
		l-30.5-0.1l-0.1,22L210,260.6 M316.3,297.6l0.2-29.4l-22.8-0.1l-0.1,29.4L316.3,297.6 M248.6,150.7l0.1-22l-30.4-0.1l-0.1,22
		L248.6,150.7 M248,260.7l0.1-22l-30.4-0.1l-0.1,22L248,260.7 M172.5,150.5l0.1-22l-30.4-0.1l-0.1,22L172.5,150.5 M171.9,260.4
		l0.1-22l-30.4-0.1l-0.1,22L171.9,260.4 M316.9,187.7l0.1-29.3l-22.8-0.1l-0.2,29.3L316.9,187.7 M134.4,150.3l0.1-22l-30.4-0.1
		l-0.1,22L134.4,150.3 M133.8,260.3l0.1-22l-30.4-0.1l-0.1,22L133.8,260.3 M393.1,151.2l0.1-22l-30.4-0.1l-0.1,22L393.1,151.2
		 M392.6,261.2l0.1-22l-30.4-0.1l-0.1,22L392.6,261.2 M316.1,334.2l0.1-29.3l-22.8-0.1l-0.1,29.3L316.1,334.2 M315.9,363.6l0.1-22
		l-22.8-0.1l-0.1,22L315.9,363.6 M317,151l0.1-22l-22.8-0.1l-0.1,22L317,151 M316.5,260.9l0.1-22l-22.8-0.1l-0.1,22L316.5,260.9"/>
	<polygon style="fill:#808080;" points="399.6,371.2 399.7,375.3 392.8,375.3 392.7,371.2 	"/>
</g>
<g style="enable-background:new    ;">
	<polygon style="fill:#0A1E60;" points="399.6,371.2 399.7,375.3 95.6,374.2 95.5,370.1 	"/>
	<polygon style="fill:#949494;" points="399.6,363.9 399.7,368 399.7,375.3 399.6,371.2 	"/>
	<g>
		<polygon style="fill:#FFFFFF;" points="103.2,362.8 399.6,363.9 399.6,371.2 95.5,370.1 97.5,120.9 105.1,120.9 		"/>
		<path style="fill:#FFFFFF;" d="M321,180.1c7.7,0,13.9,6.1,13.9,13.4c0,7.5-6.3,13.4-14,13.4c-1.8,0-3.6-0.4-5.2-1l-53.7,88
			c2.4,2.4,3.9,5.7,3.9,9.3c0,7.4-6.3,13.4-14,13.4c-7.7,0-13.9-6.1-13.8-13.5c0-3.2,1.3-6.1,3.3-8.4l-22.8-23
			c-1.4,0.5-2.9,0.8-4.5,0.8c-1.9,0-3.8-0.4-5.4-1.1l-22.1,22.9c2,2.4,3.3,5.3,3.2,8.6c0,7.4-6.3,13.4-14,13.4s-13.9-6.1-13.8-13.5
			c0-7.5,6.3-13.4,14-13.4c1.5,0,2.9,0.3,4.3,0.7l22.5-23.4c-1.6-2.2-2.6-4.9-2.6-7.8c0-7.4,6.4-13.4,14-13.3
			c7.7,0,13.9,6.1,13.8,13.4c0,3.2-1.2,6.1-3.2,8.4l22.8,23c1.4-0.5,2.9-0.8,4.4-0.8c1.2,0,2.3,0.2,3.5,0.5l54.2-88.9
			c-1.6-2.2-2.6-5-2.6-7.9C307.1,186,313.3,180.1,321,180.1z"/>
	</g>
</g>
<g>
</g>
<g>
</g>
<g>
</g>
<g>
</g>
<g>
</g>
<g>
</g>
<g>
</g>
<g>
</g>
<g>
</g>
<g>
</g>
<g>
</g>
<g>
</g>
<g>
</g>
<g>
</g>
<g>
</g>
</svg>
