<?xml version="1.0" encoding="iso-8859-1"?>
<!-- Generator: Adobe Illustrator 19.0.0, SVG Export Plug-In . SVG Version: 6.00 Build 0)  -->
<svg version="1.1" id="Layer_1" xmlns="http://www.w3.org/2000/svg" xmlns:xlink="http://www.w3.org/1999/xlink" x="0px" y="0px"
	 viewBox="0 0 512.035 512.035" style="enable-background:new 0 0 512.035 512.035;" xml:space="preserve">
<g transform="translate(1 1)">
	<path style="fill:#FFDD09;" d="M339.497,502.501H34.004V7.568h239.787l29.013,34.133l36.693,42.667V502.501z"/>
	<path style="fill:#FFFFFF;" d="M7.551,502.501h26.453V7.568H7.551V502.501z"/>
	<path style="fill:#FD9808;" d="M323.284,41.701L289.151,7.568h-15.36l29.013,34.133l36.693,42.667v418.133h26.453V84.368
		L323.284,41.701z"/>
	<g>
		<path style="fill:#FCC309;" d="M289.151,84.368h76.8l-34.133-34.133L289.151,7.568V84.368z"/>
		<path style="fill:#FCC309;" d="M493.951,50.235h-34.133V20.368c0-6.827,5.973-12.8,12.8-12.8h8.533c6.827,0,12.8,5.973,12.8,12.8
			V50.235z"/>
	</g>
	<g>
		<path style="fill:#FFDD09;" d="M451.284,434.235h51.2v-384h-51.2V434.235z"/>
		<path style="fill:#FFDD09;" d="M485.417,485.435h-17.067l-17.067-51.2h51.2L485.417,485.435z"/>
	</g>
	<path style="fill:#FCC309;" d="M451.284,434.235h51.2V297.701h-51.2V434.235z"/>
	<path d="M365.951,511.035H7.551c-5.12,0-8.533-3.413-8.533-8.533V7.568c0-5.12,3.413-8.533,8.533-8.533h281.6
		c2.56,0,4.267,0.853,5.973,2.56l76.8,76.8c1.707,1.707,2.56,3.413,2.56,5.973v418.133
		C374.484,507.621,371.071,511.035,365.951,511.035z M16.084,493.968h341.333V87.781l-71.68-71.68H16.084V493.968z"/>
	<path d="M365.951,92.901h-76.8c-5.12,0-8.533-3.413-8.533-8.533v-76.8c0-3.413,1.707-6.827,5.12-7.68
		c3.413-1.707,6.827-0.853,9.387,1.707l76.8,76.8c2.56,2.56,3.413,5.973,1.707,9.387C372.777,91.195,369.364,92.901,365.951,92.901z
		 M297.684,75.835h47.787l-47.787-47.787V75.835z"/>
	<path d="M289.151,237.968h-204.8c-5.12,0-8.533-3.413-8.533-8.533c0-5.12,3.413-8.533,8.533-8.533h204.8
		c5.12,0,8.533,3.413,8.533,8.533C297.684,234.555,294.271,237.968,289.151,237.968z"/>
	<path d="M255.017,289.168H118.484c-5.12,0-8.533-3.413-8.533-8.533c0-5.12,3.413-8.533,8.533-8.533h136.533
		c5.12,0,8.533,3.413,8.533,8.533S260.137,289.168,255.017,289.168z"/>
	<path d="M289.151,340.368h-204.8c-5.12,0-8.533-3.413-8.533-8.533s3.413-8.533,8.533-8.533h204.8c5.12,0,8.533,3.413,8.533,8.533
		S294.271,340.368,289.151,340.368z"/>
	<path d="M255.017,391.568H118.484c-5.12,0-8.533-3.413-8.533-8.533c0-5.12,3.413-8.533,8.533-8.533h136.533
		c5.12,0,8.533,3.413,8.533,8.533C263.551,388.155,260.137,391.568,255.017,391.568z"/>
	<path d="M255.017,186.768H118.484c-5.12,0-8.533-3.413-8.533-8.533c0-5.12,3.413-8.533,8.533-8.533h136.533
		c5.12,0,8.533,3.413,8.533,8.533C263.551,183.355,260.137,186.768,255.017,186.768z"/>
	<path d="M502.484,442.768h-51.2c-5.12,0-8.533-3.413-8.533-8.533v-384c0-5.12,3.413-8.533,8.533-8.533h51.2
		c5.12,0,8.533,3.413,8.533,8.533v384C511.017,439.355,507.604,442.768,502.484,442.768z M459.817,425.701h34.133V58.768h-34.133
		V425.701z"/>
	<path d="M493.951,58.768h-34.133c-5.12,0-8.533-3.413-8.533-8.533V20.368c0-11.947,9.387-21.333,21.333-21.333h8.533
		c11.947,0,21.333,9.387,21.333,21.333v29.867C502.484,55.355,499.071,58.768,493.951,58.768z M468.351,41.701h17.067V20.368
		c0-2.56-1.707-4.267-4.267-4.267h-8.533c-2.56,0-4.267,1.707-4.267,4.267V41.701z"/>
	<path d="M417.151,84.368c-3.413,0-5.973-1.707-7.68-5.12c-1.707-4.267,0-9.387,3.413-11.093l34.133-17.067
		c4.267-1.707,9.387,0,11.093,3.413c1.707,4.267,0,9.387-3.413,11.093l-34.133,17.067C419.711,84.368,418.857,84.368,417.151,84.368
		z"/>
	<path d="M417.151,195.301c-5.12,0-8.533-3.413-8.533-8.533V75.835c0-5.12,3.413-8.533,8.533-8.533c5.12,0,8.533,3.413,8.533,8.533
		v110.933C425.684,191.888,422.271,195.301,417.151,195.301z"/>
	<path d="M485.417,493.968h-17.067c-3.413,0-6.827-2.56-7.68-5.973l-17.067-51.2c-0.853-2.56-0.853-5.12,0.853-7.68
		c1.707-2.56,4.267-3.413,6.827-3.413h51.2c2.56,0,5.12,1.707,6.827,3.413c1.707,2.56,1.707,5.12,0.853,7.68l-17.067,51.2
		C492.244,491.408,488.831,493.968,485.417,493.968z M474.324,476.901h5.12l11.093-34.133h-27.307L474.324,476.901z"/>
	<path d="M476.884,511.035c-5.12,0-8.533-3.413-8.533-8.533v-17.067c0-5.12,3.413-8.533,8.533-8.533s8.533,3.413,8.533,8.533v17.067
		C485.417,507.621,482.004,511.035,476.884,511.035z"/>
	<path d="M502.484,442.768h-51.2c-5.12,0-8.533-3.413-8.533-8.533V297.701c0-5.12,3.413-8.533,8.533-8.533h51.2
		c5.12,0,8.533,3.413,8.533,8.533v136.533C511.017,439.355,507.604,442.768,502.484,442.768z M459.817,425.701h34.133V306.235
		h-34.133V425.701z"/>
	<path d="M502.484,408.635h-51.2c-5.12,0-8.533-3.413-8.533-8.533s3.413-8.533,8.533-8.533h51.2c5.12,0,8.533,3.413,8.533,8.533
		S507.604,408.635,502.484,408.635z"/>
	<path d="M502.484,374.501h-51.2c-5.12,0-8.533-3.413-8.533-8.533s3.413-8.533,8.533-8.533h51.2c5.12,0,8.533,3.413,8.533,8.533
		S507.604,374.501,502.484,374.501z"/>
	<path d="M502.484,340.368h-51.2c-5.12,0-8.533-3.413-8.533-8.533s3.413-8.533,8.533-8.533h51.2c5.12,0,8.533,3.413,8.533,8.533
		S507.604,340.368,502.484,340.368z"/>
</g>
<g>
</g>
<g>
</g>
<g>
</g>
<g>
</g>
<g>
</g>
<g>
</g>
<g>
</g>
<g>
</g>
<g>
</g>
<g>
</g>
<g>
</g>
<g>
</g>
<g>
</g>
<g>
</g>
<g>
</g>
</svg>
